<?xml version="1.0" encoding="UTF-8"?>
<!DOCTYPE svg PUBLIC "-//W3C//DTD SVG 1.1//EN" "http://www.w3.org/Graphics/SVG/1.1/DTD/svg11.dtd">
<svg xmlns="http://www.w3.org/2000/svg" version="1.1" width="804px" height="804px" style="shape-rendering:geometricPrecision; text-rendering:geometricPrecision; image-rendering:optimizeQuality; fill-rule:evenodd; clip-rule:evenodd" xmlns:xlink="http://www.w3.org/1999/xlink">
<g><path style="opacity:1" fill="#e86f79" d="M 372.5,-0.5 C 391.833,-0.5 411.167,-0.5 430.5,-0.5C 488.183,4.17264 542.516,20.1726 593.5,47.5C 593.821,49.0481 594.821,49.7148 596.5,49.5C 598.483,50.4706 600.483,51.4706 602.5,52.5C 602.821,54.0481 603.821,54.7148 605.5,54.5C 606.167,54.8333 606.833,55.1667 607.5,55.5C 607.821,57.0481 608.821,57.7148 610.5,57.5C 612.332,58.2485 613.999,59.2485 615.5,60.5C 615.821,62.0481 616.821,62.7148 618.5,62.5C 646.975,80.2677 672.642,101.601 695.5,126.5C 695.427,128.027 696.094,129.027 697.5,129.5C 699.5,130.833 701.167,132.5 702.5,134.5C 702.738,136.404 703.738,137.738 705.5,138.5C 708.881,140.88 711.547,143.88 713.5,147.5C 713.427,149.027 714.094,150.027 715.5,150.5C 716.5,150.833 717.167,151.5 717.5,152.5C 717.427,154.027 718.094,155.027 719.5,155.5C 723.975,160.437 727.975,165.77 731.5,171.5C 731.427,173.027 732.094,174.027 733.5,174.5C 733.427,176.027 734.094,177.027 735.5,177.5C 735.427,179.027 736.094,180.027 737.5,180.5C 737.427,182.027 738.094,183.027 739.5,183.5C 740.89,184.899 741.89,186.566 742.5,188.5C 742.427,190.027 743.094,191.027 744.5,191.5C 747.335,195.164 749.668,199.164 751.5,203.5C 751.427,205.027 752.094,206.027 753.5,206.5C 764.03,224.566 772.697,243.566 779.5,263.5C 779.12,265.698 779.787,267.365 781.5,268.5C 785.095,277.544 787.762,286.877 789.5,296.5C 789.41,299.152 790.076,301.485 791.5,303.5C 796.208,319.742 799.208,336.408 800.5,353.5C 800.5,355.167 800.5,356.833 800.5,358.5C 705.167,358.5 609.833,358.5 514.5,358.5C 514.173,368.015 514.506,377.348 515.5,386.5C 572.5,387.167 629.5,387.833 686.5,388.5C 681.267,438.809 658.933,479.642 619.5,511C 575.553,542.556 527.22,552.389 474.5,540.5C 472.485,539.076 470.152,538.41 467.5,538.5C 451.217,534.525 436.217,527.858 422.5,518.5C 422.027,517.094 421.027,516.427 419.5,516.5C 419.027,515.094 418.027,514.427 416.5,514.5C 413.467,512.984 410.8,510.984 408.5,508.5C 407.738,506.738 406.404,505.738 404.5,505.5C 403.167,504.833 402.167,503.833 401.5,502.5C 400.738,500.738 399.404,499.738 397.5,499.5C 385.977,489.316 376.31,477.649 368.5,464.5C 368.715,462.821 368.048,461.821 366.5,461.5C 366.167,460.833 365.833,460.167 365.5,459.5C 365.715,457.821 365.048,456.821 363.5,456.5C 343.64,419.886 337.64,381.22 345.5,340.5C 346.913,337.781 347.58,334.781 347.5,331.5C 347.232,329.901 347.566,328.568 348.5,327.5C 349.924,325.485 350.59,323.152 350.5,320.5C 353.721,307.483 359.054,295.483 366.5,284.5C 367.906,284.027 368.573,283.027 368.5,281.5C 369.906,281.027 370.573,280.027 370.5,278.5C 370.427,276.973 371.094,275.973 372.5,275.5C 373.906,275.027 374.573,274.027 374.5,272.5C 374.738,270.596 375.738,269.262 377.5,268.5C 378.906,268.027 379.573,267.027 379.5,265.5C 382.508,260.828 386.175,256.828 390.5,253.5C 391.833,252.833 392.833,251.833 393.5,250.5C 394.833,249.833 395.833,248.833 396.5,247.5C 396.5,246.833 396.833,246.5 397.5,246.5C 400.764,244.906 403.431,242.573 405.5,239.5C 412.286,232.937 419.952,227.604 428.5,223.5C 430.027,223.573 431.027,222.906 431.5,221.5C 435.416,218.71 439.749,216.71 444.5,215.5C 446.967,215.245 448.967,214.245 450.5,212.5C 452.936,211.129 455.603,210.129 458.5,209.5C 460.898,209.741 462.898,209.074 464.5,207.5C 464.833,207.5 465.167,207.5 465.5,207.5C 468.152,207.59 470.485,206.924 472.5,205.5C 473.919,204.549 475.585,204.216 477.5,204.5C 480.781,204.58 483.781,203.913 486.5,202.5C 527.664,195.694 566.331,202.694 602.5,223.5C 602.821,225.048 603.821,225.715 605.5,225.5C 608.709,227.265 611.709,229.265 614.5,231.5C 615.035,233.446 616.368,234.446 618.5,234.5C 627.425,240.756 635.425,248.089 642.5,256.5C 643.251,257.573 644.251,257.74 645.5,257C 651.333,251.167 657.167,245.333 663,239.5C 663.91,237.055 663.076,235.722 660.5,235.5C 657.833,232.5 655.167,229.5 652.5,226.5C 651.738,224.738 650.404,223.738 648.5,223.5C 646.833,222.5 645.5,221.167 644.5,219.5C 643.738,217.738 642.404,216.738 640.5,216.5C 634.462,212.155 628.462,207.821 622.5,203.5C 622.027,202.094 621.027,201.427 619.5,201.5C 618.508,201.672 617.842,201.338 617.5,200.5C 617.027,199.094 616.027,198.427 614.5,198.5C 612.181,198.008 610.181,197.008 608.5,195.5C 608.027,194.094 607.027,193.427 605.5,193.5C 540.392,163.632 476.392,165.799 413.5,200C 350.197,239.737 317.197,297.237 314.5,372.5C 314.794,391.853 317.461,410.853 322.5,429.5C 322.41,432.152 323.076,434.485 324.5,436.5C 329.093,447.922 334.093,459.256 339.5,470.5C 339.427,472.027 340.094,473.027 341.5,473.5C 342.338,473.842 342.672,474.508 342.5,475.5C 342.427,477.027 343.094,478.027 344.5,478.5C 344.427,480.027 345.094,481.027 346.5,481.5C 350.189,485.865 353.522,490.531 356.5,495.5C 356.427,497.027 357.094,498.027 358.5,498.5C 359.5,498.833 360.167,499.5 360.5,500.5C 360.738,502.404 361.738,503.738 363.5,504.5C 365.833,506.167 367.833,508.167 369.5,510.5C 369.833,512.833 371.167,514.167 373.5,514.5C 386.079,527.085 400.079,537.751 415.5,546.5C 415.821,548.048 416.821,548.715 418.5,548.5C 465.751,573.344 515.418,579.344 567.5,566.5C 570.152,566.59 572.485,565.924 574.5,564.5C 587.803,559.686 600.803,554.019 613.5,547.5C 615.027,547.573 616.027,546.906 616.5,545.5C 621.13,542.514 625.797,539.514 630.5,536.5C 632.027,536.573 633.027,535.906 633.5,534.5C 635.878,532.122 638.545,530.122 641.5,528.5C 644.089,527.581 646.089,525.914 647.5,523.5C 649.833,520.5 652.5,517.833 655.5,515.5C 658.5,514.5 660.5,512.5 661.5,509.5C 662.5,507.833 663.833,506.5 665.5,505.5C 666.906,505.027 667.573,504.027 667.5,502.5C 671.53,497.476 675.53,492.476 679.5,487.5C 680.906,487.027 681.573,486.027 681.5,484.5C 682.906,484.027 683.573,483.027 683.5,481.5C 684.906,481.027 685.573,480.027 685.5,478.5C 687.25,474.665 689.25,470.999 691.5,467.5C 692.906,467.027 693.573,466.027 693.5,464.5C 698.484,452.879 703.151,441.212 707.5,429.5C 708.924,427.485 709.59,425.152 709.5,422.5C 711.538,411.898 713.205,401.232 714.5,390.5C 715.404,389.791 715.737,388.791 715.5,387.5C 744.5,387.5 773.5,387.5 802.5,387.5C 802.194,390.385 802.527,393.052 803.5,395.5C 803.5,406.5 803.5,417.5 803.5,428.5C 791.686,558.005 733.02,660.172 627.5,735C 567.028,774.905 500.694,797.738 428.5,803.5C 410.5,803.5 392.5,803.5 374.5,803.5C 350.47,801.734 326.804,797.734 303.5,791.5C 301.485,790.076 299.152,789.41 296.5,789.5C 258.96,780.225 223.96,765.225 191.5,744.5C 191.027,743.094 190.027,742.427 188.5,742.5C 186.566,741.89 184.899,740.89 183.5,739.5C 183.027,738.094 182.027,737.427 180.5,737.5C 180.027,736.094 179.027,735.427 177.5,735.5C 177.027,734.094 176.027,733.427 174.5,733.5C 167.599,729.598 161.266,724.931 155.5,719.5C 155.027,718.094 154.027,717.427 152.5,717.5C 151.5,717.167 150.833,716.5 150.5,715.5C 150.027,714.094 149.027,713.427 147.5,713.5C 146.5,713.167 145.833,712.5 145.5,711.5C 144.738,709.738 143.404,708.738 141.5,708.5C 140.167,707.833 139.167,706.833 138.5,705.5C 137.738,703.738 136.404,702.738 134.5,702.5C 132.5,701.167 130.833,699.5 129.5,697.5C 128.738,695.738 127.404,694.738 125.5,694.5C 119.167,688.833 113.167,682.833 107.5,676.5C 107.573,674.973 106.906,673.973 105.5,673.5C 61.8878,627.271 31.3878,573.271 14,511.5C 6.77096,484.782 1.93762,457.782 -0.5,430.5C -0.5,411.167 -0.5,391.833 -0.5,372.5C 1.37065,348.905 5.37065,325.572 11.5,302.5C 12.9238,300.485 13.5905,298.152 13.5,295.5C 14.9238,293.485 15.5905,291.152 15.5,288.5C 24.0965,256.987 36.7631,227.32 53.5,199.5C 54.9063,199.027 55.573,198.027 55.5,196.5C 55.3284,195.508 55.6618,194.842 56.5,194.5C 57.9063,194.027 58.573,193.027 58.5,191.5C 59.1103,189.566 60.1103,187.899 61.5,186.5C 62.9063,186.027 63.573,185.027 63.5,183.5C 64.9063,183.027 65.573,182.027 65.5,180.5C 66.9063,180.027 67.573,179.027 67.5,177.5C 70.1173,172.886 73.1173,168.553 76.5,164.5C 77.9063,164.027 78.573,163.027 78.5,161.5C 80.8171,157.854 83.4838,154.52 86.5,151.5C 88.2624,150.738 89.2624,149.404 89.5,147.5C 89.8333,146.5 90.5,145.833 91.5,145.5C 92.9063,145.027 93.573,144.027 93.5,142.5C 94.1667,141.167 95.1667,140.167 96.5,139.5C 97.9063,139.027 98.573,138.027 98.5,136.5C 100.833,133.833 103.167,131.167 105.5,128.5C 108.167,127.833 109.833,126.167 110.5,123.5C 114.5,118.833 118.833,114.5 123.5,110.5C 126.089,109.581 128.089,107.914 129.5,105.5C 131.5,102.833 133.833,100.5 136.5,98.5C 138.499,275.83 139.165,453.497 138.5,631.5C 205.669,631.832 272.669,631.499 339.5,630.5C 339.5,621.167 339.5,611.833 339.5,602.5C 282.336,601.501 225.002,601.168 167.5,601.5C 167.5,425.833 167.5,250.167 167.5,74.5C 181.987,63.0817 197.653,53.415 214.5,45.5C 216.027,45.573 217.027,44.9063 217.5,43.5C 234.083,34.5458 251.417,27.2124 269.5,21.5C 272.716,21.6545 275.383,20.6545 277.5,18.5C 277.833,18.5 278.167,18.5 278.5,18.5C 281.152,18.5905 283.485,17.9238 285.5,16.5C 286.209,15.596 287.209,15.2627 288.5,15.5C 291.152,15.5905 293.485,14.9238 295.5,13.5C 298.152,13.5905 300.485,12.9238 302.5,11.5C 325.574,5.3705 348.907,1.3705 372.5,-0.5 Z"/></g>
<g><path style="opacity:0.737" fill="#f4b2b7" d="M 302.5,11.5 C 300.485,12.9238 298.152,13.5905 295.5,13.5C 297.515,12.0762 299.848,11.4095 302.5,11.5 Z"/></g>
<g><path style="opacity:0.82" fill="#f2a7ac" d="M 295.5,13.5 C 293.485,14.9238 291.152,15.5905 288.5,15.5C 290.515,14.0762 292.848,13.4095 295.5,13.5 Z"/></g>
<g><path style="opacity:0.843" fill="#f2a4a9" d="M 285.5,16.5 C 283.485,17.9238 281.152,18.5905 278.5,18.5C 280.515,17.0762 282.848,16.4095 285.5,16.5 Z"/></g>
<g><path style="opacity:0.906" fill="#f2a0a5" d="M 277.5,18.5 C 275.383,20.6545 272.716,21.6545 269.5,21.5C 271.936,20.129 274.603,19.129 277.5,18.5 Z"/></g>
<g><path style="opacity:0.655" fill="#f5bcc0" d="M 217.5,43.5 C 217.027,44.9063 216.027,45.573 214.5,45.5C 214.973,44.0937 215.973,43.427 217.5,43.5 Z"/></g>
<g><path style="opacity:0.847" fill="#f7b6ba" d="M 593.5,47.5 C 594.71,47.9321 595.71,48.5987 596.5,49.5C 594.821,49.7148 593.821,49.0481 593.5,47.5 Z"/></g>
<g><path style="opacity:0.796" fill="#f8bec1" d="M 602.5,52.5 C 603.71,52.9321 604.71,53.5987 605.5,54.5C 603.821,54.7148 602.821,54.0481 602.5,52.5 Z"/></g>
<g><path style="opacity:0.827" fill="#f7b9bb" d="M 607.5,55.5 C 608.71,55.9321 609.71,56.5987 610.5,57.5C 608.821,57.7148 607.821,57.0481 607.5,55.5 Z"/></g>
<g><path style="opacity:0.875" fill="#f7b5b8" d="M 615.5,60.5 C 616.71,60.9321 617.71,61.5987 618.5,62.5C 616.821,62.7148 615.821,62.0481 615.5,60.5 Z"/></g>
<g><path style="opacity:0.349" fill="#f4c1c5" d="M 339.5,630.5 C 272.669,631.499 205.669,631.832 138.5,631.5C 139.165,453.497 138.499,275.83 136.5,98.5C 136.811,97.5222 137.478,96.8555 138.5,96.5C 139.5,274.499 139.833,452.499 139.5,630.5C 206.167,630.5 272.833,630.5 339.5,630.5 Z"/></g>
<g><path style="opacity:0.643" fill="#f5b6b9" d="M 129.5,105.5 C 128.089,107.914 126.089,109.581 123.5,110.5C 124.911,108.086 126.911,106.419 129.5,105.5 Z"/></g>
<g><path style="opacity:0.643" fill="#f6b6ba" d="M 110.5,123.5 C 109.833,126.167 108.167,127.833 105.5,128.5C 106.833,126.5 108.5,124.833 110.5,123.5 Z"/></g>
<g><path style="opacity:0.451" fill="#f8c7ca" d="M 695.5,126.5 C 696.906,126.973 697.573,127.973 697.5,129.5C 696.094,129.027 695.427,128.027 695.5,126.5 Z"/></g>
<g><path style="opacity:0.667" fill="#f7bcbf" d="M 702.5,134.5 C 704.262,135.262 705.262,136.596 705.5,138.5C 703.738,137.738 702.738,136.404 702.5,134.5 Z"/></g>
<g><path style="opacity:0.525" fill="#f7c6c9" d="M 98.5,136.5 C 98.573,138.027 97.9063,139.027 96.5,139.5C 96.427,137.973 97.0937,136.973 98.5,136.5 Z"/></g>
<g><path style="opacity:0.624" fill="#f6bbbf" d="M 93.5,142.5 C 93.573,144.027 92.9063,145.027 91.5,145.5C 91.427,143.973 92.0937,142.973 93.5,142.5 Z"/></g>
<g><path style="opacity:0.725" fill="#f7b9bd" d="M 89.5,147.5 C 89.2624,149.404 88.2624,150.738 86.5,151.5C 86.7376,149.596 87.7376,148.262 89.5,147.5 Z"/></g>
<g><path style="opacity:0.643" fill="#f6b8bb" d="M 713.5,147.5 C 714.906,147.973 715.573,148.973 715.5,150.5C 714.094,150.027 713.427,149.027 713.5,147.5 Z"/></g>
<g><path style="opacity:0.624" fill="#f7bbbf" d="M 717.5,152.5 C 718.906,152.973 719.573,153.973 719.5,155.5C 718.094,155.027 717.427,154.027 717.5,152.5 Z"/></g>
<g><path style="opacity:0.302" fill="#f6c4c7" d="M 78.5,161.5 C 78.573,163.027 77.9063,164.027 76.5,164.5C 76.427,162.973 77.0937,161.973 78.5,161.5 Z"/></g>
<g><path style="opacity:0.322" fill="#f7c2c5" d="M 731.5,171.5 C 732.906,171.973 733.573,172.973 733.5,174.5C 732.094,174.027 731.427,173.027 731.5,171.5 Z"/></g>
<g><path style="opacity:0.357" fill="#f6c0c4" d="M 733.5,174.5 C 734.906,174.973 735.573,175.973 735.5,177.5C 734.094,177.027 733.427,176.027 733.5,174.5 Z"/></g>
<g><path style="opacity:0.451" fill="#f5b5b9" d="M 67.5,177.5 C 67.573,179.027 66.9063,180.027 65.5,180.5C 65.427,178.973 66.0937,177.973 67.5,177.5 Z"/></g>
<g><path style="opacity:0.361" fill="#f6bec1" d="M 735.5,177.5 C 736.906,177.973 737.573,178.973 737.5,180.5C 736.094,180.027 735.427,179.027 735.5,177.5 Z"/></g>
<g><path style="opacity:0.416" fill="#f4b5b9" d="M 65.5,180.5 C 65.573,182.027 64.9063,183.027 63.5,183.5C 63.427,181.973 64.0937,180.973 65.5,180.5 Z"/></g>
<g><path style="opacity:0.325" fill="#f6bfc2" d="M 737.5,180.5 C 738.906,180.973 739.573,181.973 739.5,183.5C 738.094,183.027 737.427,182.027 737.5,180.5 Z"/></g>
<g><path style="opacity:0.353" fill="#f6bfc2" d="M 63.5,183.5 C 63.573,185.027 62.9063,186.027 61.5,186.5C 61.427,184.973 62.0937,183.973 63.5,183.5 Z"/></g>
<g><path style="opacity:0.38" fill="#f5b8bc" d="M 742.5,188.5 C 743.906,188.973 744.573,189.973 744.5,191.5C 743.094,191.027 742.427,190.027 742.5,188.5 Z"/></g>
<g><path style="opacity:0.306" fill="#f6bfc2" d="M 58.5,191.5 C 58.573,193.027 57.9063,194.027 56.5,194.5C 56.427,192.973 57.0937,191.973 58.5,191.5 Z"/></g>
<g><path style="opacity:0.224" fill="#f6c4c7" d="M 605.5,193.5 C 607.027,193.427 608.027,194.094 608.5,195.5C 606.973,195.573 605.973,194.906 605.5,193.5 Z"/></g>
<g><path style="opacity:0.282" fill="#f7c3c6" d="M 55.5,196.5 C 55.573,198.027 54.9063,199.027 53.5,199.5C 53.427,197.973 54.0937,196.973 55.5,196.5 Z"/></g>
<g><path style="opacity:0.235" fill="#f8c7ca" d="M 614.5,198.5 C 616.027,198.427 617.027,199.094 617.5,200.5C 615.973,200.573 614.973,199.906 614.5,198.5 Z"/></g>
<g><path style="opacity:0.286" fill="#f6c3c6" d="M 619.5,201.5 C 621.027,201.427 622.027,202.094 622.5,203.5C 620.973,203.573 619.973,202.906 619.5,201.5 Z"/></g>
<g><path style="opacity:0.855" fill="#f3a9ad" d="M 486.5,202.5 C 483.781,203.913 480.781,204.58 477.5,204.5C 480.219,203.087 483.219,202.42 486.5,202.5 Z"/></g>
<g><path style="opacity:0.192" fill="#f7cbce" d="M 751.5,203.5 C 752.906,203.973 753.573,204.973 753.5,206.5C 752.094,206.027 751.427,205.027 751.5,203.5 Z"/></g>
<g><path style="opacity:0.812" fill="#f2a8ad" d="M 472.5,205.5 C 470.485,206.924 468.152,207.59 465.5,207.5C 467.515,206.076 469.848,205.41 472.5,205.5 Z"/></g>
<g><path style="opacity:0.729" fill="#f6bcbf" d="M 464.5,207.5 C 462.898,209.074 460.898,209.741 458.5,209.5C 460.214,208.262 462.214,207.595 464.5,207.5 Z"/></g>
<g><path style="opacity:0.675" fill="#f4adb2" d="M 450.5,212.5 C 448.967,214.245 446.967,215.245 444.5,215.5C 446.033,213.755 448.033,212.755 450.5,212.5 Z"/></g>
<g><path style="opacity:0.69" fill="#f6b9bd" d="M 640.5,216.5 C 642.404,216.738 643.738,217.738 644.5,219.5C 642.596,219.262 641.262,218.262 640.5,216.5 Z"/></g>
<g><path style="opacity:0.663" fill="#f5b4b8" d="M 431.5,221.5 C 431.027,222.906 430.027,223.573 428.5,223.5C 428.973,222.094 429.973,221.427 431.5,221.5 Z"/></g>
<g><path style="opacity:0.596" fill="#f7c1c3" d="M 648.5,223.5 C 650.404,223.738 651.738,224.738 652.5,226.5C 650.596,226.262 649.262,225.262 648.5,223.5 Z"/></g>
<g><path style="opacity:0.792" fill="#f8bdc0" d="M 602.5,223.5 C 603.71,223.932 604.71,224.599 605.5,225.5C 603.821,225.715 602.821,225.048 602.5,223.5 Z"/></g>
<g><path style="opacity:0.875" fill="#f7bbbe" d="M 614.5,231.5 C 616.23,232.026 617.564,233.026 618.5,234.5C 616.368,234.446 615.035,233.446 614.5,231.5 Z"/></g>
<g><path style="opacity:0.804" fill="#f2a2a7" d="M 405.5,239.5 C 403.431,242.573 400.764,244.906 397.5,246.5C 399.569,243.427 402.236,241.094 405.5,239.5 Z"/></g>
<g><path style="opacity:0.451" fill="#f7c3c7" d="M 396.5,247.5 C 395.833,248.833 394.833,249.833 393.5,250.5C 393.5,248.5 394.5,247.5 396.5,247.5 Z"/></g>
<g><path style="opacity:0.455" fill="#f7c3c7" d="M 393.5,250.5 C 392.833,251.833 391.833,252.833 390.5,253.5C 390.5,251.5 391.5,250.5 393.5,250.5 Z"/></g>
<g><path style="opacity:0.549" fill="#f7c0c4" d="M 660.5,235.5 C 663.076,235.722 663.91,237.055 663,239.5C 657.167,245.333 651.333,251.167 645.5,257C 644.251,257.74 643.251,257.573 642.5,256.5C 649.577,250.929 656.244,244.762 662.5,238C 661.619,237.292 660.953,236.458 660.5,235.5 Z"/></g>
<g><path style="opacity:0.769" fill="#f6bbbe" d="M 779.5,263.5 C 780.537,264.93 781.204,266.597 781.5,268.5C 779.787,267.365 779.12,265.698 779.5,263.5 Z"/></g>
<g><path style="opacity:0.369" fill="#f7c3c7" d="M 379.5,265.5 C 379.573,267.027 378.906,268.027 377.5,268.5C 377.427,266.973 378.094,265.973 379.5,265.5 Z"/></g>
<g><path style="opacity:0.459" fill="#f5b4b8" d="M 374.5,272.5 C 374.573,274.027 373.906,275.027 372.5,275.5C 372.427,273.973 373.094,272.973 374.5,272.5 Z"/></g>
<g><path style="opacity:0.42" fill="#f5b4b8" d="M 370.5,278.5 C 370.573,280.027 369.906,281.027 368.5,281.5C 368.427,279.973 369.094,278.973 370.5,278.5 Z"/></g>
<g><path style="opacity:0.282" fill="#f7c4c8" d="M 368.5,281.5 C 368.573,283.027 367.906,284.027 366.5,284.5C 366.427,282.973 367.094,281.973 368.5,281.5 Z"/></g>
<g><path style="opacity:0.812" fill="#f4aeb2" d="M 15.5,288.5 C 15.5905,291.152 14.9238,293.485 13.5,295.5C 13.4095,292.848 14.0762,290.515 15.5,288.5 Z"/></g>
<g><path style="opacity:0.51" fill="#f6bcc0" d="M 13.5,295.5 C 13.5905,298.152 12.9238,300.485 11.5,302.5C 11.4095,299.848 12.0762,297.515 13.5,295.5 Z"/></g>
<g><path style="opacity:0.671" fill="#f2a8ad" d="M 789.5,296.5 C 790.924,298.515 791.59,300.848 791.5,303.5C 790.076,301.485 789.41,299.152 789.5,296.5 Z"/></g>
<g><path style="opacity:0.835" fill="#f3abaf" d="M 350.5,320.5 C 350.59,323.152 349.924,325.485 348.5,327.5C 348.41,324.848 349.076,322.515 350.5,320.5 Z"/></g>
<g><path style="opacity:0.882" fill="#f3a6ab" d="M 347.5,331.5 C 347.58,334.781 346.913,337.781 345.5,340.5C 345.42,337.219 346.087,334.219 347.5,331.5 Z"/></g>
<g><path style="opacity:0.012" fill="#fef6f6" d="M 800.5,353.5 C 801.461,355.265 801.795,357.265 801.5,359.5C 706.167,359.5 610.833,359.5 515.5,359.5C 515.5,368.5 515.5,377.5 515.5,386.5C 514.506,377.348 514.173,368.015 514.5,358.5C 609.833,358.5 705.167,358.5 800.5,358.5C 800.5,356.833 800.5,355.167 800.5,353.5 Z"/></g>
<g><path style="opacity:0.467" fill="#f1a8ae" d="M 515.5,386.5 C 572.837,386.167 630.171,386.5 687.5,387.5C 687.376,388.107 687.043,388.44 686.5,388.5C 629.5,387.833 572.5,387.167 515.5,386.5 Z"/></g>
<g><path style="opacity:0.467" fill="#f1a7ad" d="M 803.5,386.5 C 803.5,389.5 803.5,392.5 803.5,395.5C 802.527,393.052 802.194,390.385 802.5,387.5C 773.5,387.5 744.5,387.5 715.5,387.5C 715.737,388.791 715.404,389.791 714.5,390.5C 714.5,389.167 714.5,387.833 714.5,386.5C 744.167,386.5 773.833,386.5 803.5,386.5 Z"/></g>
<g><path style="opacity:0.851" fill="#f2a6ab" d="M 709.5,422.5 C 709.59,425.152 708.924,427.485 707.5,429.5C 707.41,426.848 708.076,424.515 709.5,422.5 Z"/></g>
<g><path style="opacity:0.733" fill="#f5b5b8" d="M 322.5,429.5 C 323.924,431.515 324.59,433.848 324.5,436.5C 323.076,434.485 322.41,432.152 322.5,429.5 Z"/></g>
<g><path style="opacity:0.835" fill="#f7b8bb" d="M 363.5,456.5 C 365.048,456.821 365.715,457.821 365.5,459.5C 364.599,458.71 363.932,457.71 363.5,456.5 Z"/></g>
<g><path style="opacity:0.875" fill="#f6b5b8" d="M 366.5,461.5 C 368.048,461.821 368.715,462.821 368.5,464.5C 367.599,463.71 366.932,462.71 366.5,461.5 Z"/></g>
<g><path style="opacity:0.2" fill="#f8cbce" d="M 693.5,464.5 C 693.573,466.027 692.906,467.027 691.5,467.5C 691.427,465.973 692.094,464.973 693.5,464.5 Z"/></g>
<g><path style="opacity:0.325" fill="#f6bec2" d="M 339.5,470.5 C 340.906,470.973 341.573,471.973 341.5,473.5C 340.094,473.027 339.427,472.027 339.5,470.5 Z"/></g>
<g><path style="opacity:0.314" fill="#f7c3c7" d="M 342.5,475.5 C 343.906,475.973 344.573,476.973 344.5,478.5C 343.094,478.027 342.427,477.027 342.5,475.5 Z"/></g>
<g><path style="opacity:0.22" fill="#f8d0d2" d="M 344.5,478.5 C 345.906,478.973 346.573,479.973 346.5,481.5C 345.094,481.027 344.427,480.027 344.5,478.5 Z"/></g>
<g><path style="opacity:0.38" fill="#f5b7bb" d="M 685.5,478.5 C 685.573,480.027 684.906,481.027 683.5,481.5C 683.427,479.973 684.094,478.973 685.5,478.5 Z"/></g>
<g><path style="opacity:0.341" fill="#f7c0c4" d="M 683.5,481.5 C 683.573,483.027 682.906,484.027 681.5,484.5C 681.427,482.973 682.094,481.973 683.5,481.5 Z"/></g>
<g><path style="opacity:0.388" fill="#f6bdc1" d="M 681.5,484.5 C 681.573,486.027 680.906,487.027 679.5,487.5C 679.427,485.973 680.094,484.973 681.5,484.5 Z"/></g>
<g><path style="opacity:0.584" fill="#f7bfc3" d="M 356.5,495.5 C 357.906,495.973 358.573,496.973 358.5,498.5C 357.094,498.027 356.427,497.027 356.5,495.5 Z"/></g>
<g><path style="opacity:0.651" fill="#f7bdc0" d="M 397.5,499.5 C 399.404,499.738 400.738,500.738 401.5,502.5C 399.596,502.262 398.262,501.262 397.5,499.5 Z"/></g>
<g><path style="opacity:0.651" fill="#f7c1c4" d="M 360.5,500.5 C 362.262,501.262 363.262,502.596 363.5,504.5C 361.738,503.738 360.738,502.404 360.5,500.5 Z"/></g>
<g><path style="opacity:0.557" fill="#f7c1c4" d="M 667.5,502.5 C 667.573,504.027 666.906,505.027 665.5,505.5C 665.427,503.973 666.094,502.973 667.5,502.5 Z"/></g>
<g><path style="opacity:0.69" fill="#f6bcc0" d="M 404.5,505.5 C 406.404,505.738 407.738,506.738 408.5,508.5C 406.596,508.262 405.262,507.262 404.5,505.5 Z"/></g>
<g><path style="opacity:0.631" fill="#f8c6c9" d="M 369.5,510.5 C 371.167,511.5 372.5,512.833 373.5,514.5C 371.167,514.167 369.833,512.833 369.5,510.5 Z"/></g>
<g><path style="opacity:0.745" fill="#f3a8ac" d="M 661.5,509.5 C 660.5,512.5 658.5,514.5 655.5,515.5C 657.167,513.167 659.167,511.167 661.5,509.5 Z"/></g>
<g><path style="opacity:0.353" fill="#f6bec2" d="M 416.5,514.5 C 418.027,514.427 419.027,515.094 419.5,516.5C 417.973,516.573 416.973,515.906 416.5,514.5 Z"/></g>
<g><path style="opacity:0.318" fill="#f6c2c5" d="M 419.5,516.5 C 421.027,516.427 422.027,517.094 422.5,518.5C 420.973,518.573 419.973,517.906 419.5,516.5 Z"/></g>
<g><path style="opacity:0.812" fill="#f2a4a9" d="M 647.5,523.5 C 646.089,525.914 644.089,527.581 641.5,528.5C 642.911,526.086 644.911,524.419 647.5,523.5 Z"/></g>
<g><path style="opacity:0.549" fill="#f6bfc3" d="M 633.5,534.5 C 633.027,535.906 632.027,536.573 630.5,536.5C 630.973,535.094 631.973,534.427 633.5,534.5 Z"/></g>
<g><path style="opacity:0.6" fill="#f3aeb2" d="M 467.5,538.5 C 470.152,538.41 472.485,539.076 474.5,540.5C 471.848,540.59 469.515,539.924 467.5,538.5 Z"/></g>
<g><path style="opacity:0.58" fill="#f6bec2" d="M 616.5,545.5 C 616.027,546.906 615.027,547.573 613.5,547.5C 613.973,546.094 614.973,545.427 616.5,545.5 Z"/></g>
<g><path style="opacity:0.859" fill="#f6b6b8" d="M 415.5,546.5 C 416.71,546.932 417.71,547.599 418.5,548.5C 416.821,548.715 415.821,548.048 415.5,546.5 Z"/></g>
<g><path style="opacity:0.82" fill="#f2a6ab" d="M 574.5,564.5 C 572.485,565.924 570.152,566.59 567.5,566.5C 569.515,565.076 571.848,564.41 574.5,564.5 Z"/></g>
<g><path style="opacity:0.863" fill="#f4acb0" d="M 167.5,74.5 C 167.5,250.167 167.5,425.833 167.5,601.5C 225.002,601.168 282.336,601.501 339.5,602.5C 281.833,602.5 224.167,602.5 166.5,602.5C 166.167,426.333 166.5,250.333 167.5,74.5 Z"/></g>
<g><path style="opacity:0.004" fill="#fbdfe1" d="M 105.5,673.5 C 106.906,673.973 107.573,674.973 107.5,676.5C 106.094,676.027 105.427,675.027 105.5,673.5 Z"/></g>
<g><path style="opacity:0.494" fill="#f8c8cc" d="M 125.5,694.5 C 127.404,694.738 128.738,695.738 129.5,697.5C 127.596,697.262 126.262,696.262 125.5,694.5 Z"/></g>
<g><path style="opacity:0.643" fill="#f7bec1" d="M 134.5,702.5 C 136.404,702.738 137.738,703.738 138.5,705.5C 136.596,705.262 135.262,704.262 134.5,702.5 Z"/></g>
<g><path style="opacity:0.671" fill="#f7c0c3" d="M 141.5,708.5 C 143.404,708.738 144.738,709.738 145.5,711.5C 143.596,711.262 142.262,710.262 141.5,708.5 Z"/></g>
<g><path style="opacity:0.624" fill="#f6bec2" d="M 147.5,713.5 C 149.027,713.427 150.027,714.094 150.5,715.5C 148.973,715.573 147.973,714.906 147.5,713.5 Z"/></g>
<g><path style="opacity:0.384" fill="#f6c0c3" d="M 152.5,717.5 C 154.027,717.427 155.027,718.094 155.5,719.5C 153.973,719.573 152.973,718.906 152.5,717.5 Z"/></g>
<g><path style="opacity:0.325" fill="#f6c0c4" d="M 174.5,733.5 C 176.027,733.427 177.027,734.094 177.5,735.5C 175.973,735.573 174.973,734.906 174.5,733.5 Z"/></g>
<g><path style="opacity:0.337" fill="#f6bec1" d="M 177.5,735.5 C 179.027,735.427 180.027,736.094 180.5,737.5C 178.973,737.573 177.973,736.906 177.5,735.5 Z"/></g>
<g><path style="opacity:0.302" fill="#f7c4c7" d="M 180.5,737.5 C 182.027,737.427 183.027,738.094 183.5,739.5C 181.973,739.573 180.973,738.906 180.5,737.5 Z"/></g>
<g><path style="opacity:0.357" fill="#f6bec2" d="M 188.5,742.5 C 190.027,742.427 191.027,743.094 191.5,744.5C 189.973,744.573 188.973,743.906 188.5,742.5 Z"/></g>
<g><path style="opacity:0.655" fill="#f2a8ad" d="M 296.5,789.5 C 299.152,789.41 301.485,790.076 303.5,791.5C 300.848,791.59 298.515,790.924 296.5,789.5 Z"/></g>
</svg>
